<svg preserveAspectRatio="none" width="100%" height="100%" overflow="visible" style="display: block;" viewBox="0 0 35 34" fill="none" xmlns="http://www.w3.org/2000/svg">
<g id="Overlay">
<rect width="35" height="34" rx="8" fill="var(--fill-0, #60233E)" fill-opacity="0.1"/>
<path id="Icon" d="M10 24V24V24V24V24V24V24V24V10V10V10V10V10V10V10V10C10 10 10 10.3708 10 11.1125C10 11.8542 10 12.8167 10 14V20C10 21.1833 10 22.1458 10 22.8875C10 23.6292 10 24 10 24V24M10 26C9.45 26 8.97917 25.8042 8.5875 25.4125C8.19583 25.0208 8 24.55 8 24V10C8 9.45 8.19583 8.97917 8.5875 8.5875C8.97917 8.19583 9.45 8 10 8H24C24.55 8 25.0208 8.19583 25.4125 8.5875C25.8042 8.97917 26 9.45 26 10V12.5H24V10V10V10H10V10V10V24V24V24H24V24V24V21.5H26V24C26 24.55 25.8042 25.0208 25.4125 25.4125C25.0208 25.8042 24.55 26 24 26H10V26M18 22C17.45 22 16.9792 21.8042 16.5875 21.4125C16.1958 21.0208 16 20.55 16 20V14C16 13.45 16.1958 12.9792 16.5875 12.5875C16.9792 12.1958 17.45 12 18 12H25C25.55 12 26.0208 12.1958 26.4125 12.5875C26.8042 12.9792 27 13.45 27 14V20C27 20.55 26.8042 21.0208 26.4125 21.4125C26.0208 21.8042 25.55 22 25 22H18V22M25 20V20V20V14V14V14H18V14V14V20V20V20H25V20M21 18.5C21.4167 18.5 21.7708 18.3542 22.0625 18.0625C22.3542 17.7708 22.5 17.4167 22.5 17C22.5 16.5833 22.3542 16.2292 22.0625 15.9375C21.7708 15.6458 21.4167 15.5 21 15.5C20.5833 15.5 20.2292 15.6458 19.9375 15.9375C19.6458 16.2292 19.5 16.5833 19.5 17C19.5 17.4167 19.6458 17.7708 19.9375 18.0625C20.2292 18.3542 20.5833 18.5 21 18.5V18.5" fill="var(--fill-0, #60233E)"/>
</g>
</svg>
