<svg width="44" height="44" viewBox="0 0 44 44" fill="none" xmlns="http://www.w3.org/2000/svg">
<g id="Background">
<rect width="44" height="44" rx="16" fill="var(--fill-0, white)"/>
<path id="Icon" d="M15 32C14.45 32 13.9792 31.8042 13.5875 31.4125C13.1958 31.0208 13 30.55 13 30V18.725C12.7 18.5417 12.4583 18.3042 12.275 18.0125C12.0917 17.7208 12 17.3833 12 17V14C12 13.45 12.1958 12.9792 12.5875 12.5875C12.9792 12.1958 13.45 12 14 12H30C30.55 12 31.0208 12.1958 31.4125 12.5875C31.8042 12.9792 32 13.45 32 14V17C32 17.3833 31.9083 17.7208 31.725 18.0125C31.5417 18.3042 31.3 18.5417 31 18.725V30C31 30.55 30.8042 31.0208 30.4125 31.4125C30.0208 31.8042 29.55 32 29 32H15V32M15 19V30V30V30H29V30V30V19H15V19M14 17H30V17V17V14V14V14H14V14V14V17V17V17V17M19 24H25V22H19V24V24M22 24.5V24.5V24.5V24.5V24.5V24.5V24.5V24.5V24.5V24.5" fill="var(--fill-0, #154212)"/>
</g>
</svg>
