<svg width="42" height="42" viewBox="0 0 42 42" fill="none" xmlns="http://www.w3.org/2000/svg">
<g id="Overlay">
<rect width="42" height="42" rx="16" fill="var(--fill-0, #2D5A27)" fill-opacity="0.1"/>
<path id="Icon" d="M16 26H18V21H16V26V26M24 26H26V16H24V26V26M20 26H22V23H20V26V26M20 21H22V19H20V21V21M14 30C13.45 30 12.9792 29.8042 12.5875 29.4125C12.1958 29.0208 12 28.55 12 28V14C12 13.45 12.1958 12.9792 12.5875 12.5875C12.9792 12.1958 13.45 12 14 12H28C28.55 12 29.0208 12.1958 29.4125 12.5875C29.8042 12.9792 30 13.45 30 14V28C30 28.55 29.8042 29.0208 29.4125 29.4125C29.0208 29.8042 28.55 30 28 30H14V30M14 28H28V28V28V14V14V14H14V14V14V28V28V28V28M14 14V14V14V14V28V28V28V28V28V28V14V14V14V14" fill="var(--fill-0, #2D5A27)"/>
</g>
</svg>
