<svg width="9.91401" height="11.9122" viewBox="0 0 9.91401 11.9122" fill="none" xmlns="http://www.w3.org/2000/svg">
<g id="Margin">
<path id="Icon" d="M1.4 10.5122C0.9625 10.0747 0.619792 9.56912 0.371875 8.99551C0.123958 8.4219 0 7.82885 0 7.21635C0 6.60385 0.116667 5.99864 0.35 5.40072C0.583333 4.8028 0.9625 4.24135 1.4875 3.71635C1.82778 3.37607 2.24826 3.0844 2.74896 2.84135C3.24965 2.59829 3.84271 2.40628 4.52812 2.2653C5.21354 2.12433 5.99618 2.03926 6.87604 2.0101C7.7559 1.98093 8.74028 2.01496 9.82917 2.11218C9.90694 3.14274 9.93125 4.09065 9.90208 4.95593C9.87292 5.82121 9.79271 6.60142 9.66146 7.29655C9.53021 7.99169 9.34549 8.59933 9.10729 9.11947C8.8691 9.63961 8.575 10.0747 8.225 10.4247C7.70972 10.94 7.16285 11.3167 6.58437 11.5549C6.0059 11.7931 5.41528 11.9122 4.8125 11.9122C4.18056 11.9122 3.56319 11.7882 2.96042 11.5403C2.35764 11.2924 1.8375 10.9497 1.4 10.5122V10.5122M3.03333 10.2788C3.31528 10.4441 3.60451 10.5632 3.90104 10.6361C4.19757 10.7091 4.50139 10.7455 4.8125 10.7455C5.25972 10.7455 5.70208 10.6556 6.13958 10.4757C6.57708 10.2959 6.99514 10.0066 7.39375 9.60801C7.56875 9.43301 7.74618 9.18753 7.92604 8.87155C8.1059 8.55558 8.26146 8.14239 8.39271 7.63197C8.52396 7.12155 8.62361 6.50419 8.69167 5.77989C8.75972 5.05558 8.76944 4.19274 8.72083 3.19135C8.24444 3.1719 7.70729 3.16461 7.10938 3.16947C6.51146 3.17433 5.91597 3.22051 5.32292 3.30801C4.72986 3.39551 4.16597 3.53649 3.63125 3.73093C3.09653 3.92537 2.65903 4.19274 2.31875 4.53301C1.88125 4.97051 1.57986 5.40315 1.41458 5.83093C1.24931 6.25871 1.16667 6.6719 1.16667 7.07051C1.16667 7.64412 1.27604 8.14725 1.49479 8.57989C1.71354 9.01253 1.90556 9.31635 2.07083 9.49135C2.47917 8.71357 3.01875 7.96739 3.68958 7.2528C4.36042 6.53822 5.14306 5.95246 6.0375 5.49551C5.3375 6.10801 4.72743 6.80072 4.20729 7.57364C3.68715 8.34655 3.29583 9.24829 3.03333 10.2788V10.2788M3.03333 10.2788V10.2788V10.2788V10.2788V10.2788V10.2788V10.2788V10.2788V10.2788V10.2788V10.2788V10.2788M3.03333 10.2788V10.2788V10.2788V10.2788V10.2788V10.2788V10.2788V10.2788V10.2788V10.2788V10.2788V10.2788V10.2788V10.2788V10.2788V10.2788V10.2788V10.2788V10.2788V10.2788V10.2788V10.2788" fill="var(--fill-0, #60233E)"/>
</g>
</svg>
