<svg width="18.9999" height="18.4999" viewBox="0 0 18.9999 18.4999" fill="none" xmlns="http://www.w3.org/2000/svg">
<g id="Container">
<path id="Icon" d="M1.80768 18.4999C1.30255 18.4999 0.874992 18.3249 0.524995 17.9749C0.174998 17.6249 0 17.1973 0 16.6922V5.30764C0 4.80252 0.174998 4.37496 0.524995 4.02496C0.874992 3.67496 1.30255 3.49996 1.80768 3.49996H6V1.80768C6 1.30255 6.175 0.874992 6.525 0.524995C6.87499 0.174998 7.30255 0 7.80768 0H11.1922C11.6974 0 12.1249 0.174998 12.4749 0.524995C12.8249 0.874992 12.9999 1.30255 12.9999 1.80768V3.49996H17.1922C17.6974 3.49996 18.1249 3.67496 18.4749 4.02496C18.8249 4.37496 18.9999 4.80252 18.9999 5.30764V16.6922C18.9999 17.1973 18.8249 17.6249 18.4749 17.9749C18.1249 18.3249 17.6974 18.4999 17.1922 18.4999H1.80768V18.4999M1.80768 16.9999H17.1922C17.2692 16.9999 17.3397 16.9679 17.4038 16.9038C17.4679 16.8397 17.5 16.7691 17.5 16.6922V5.30764C17.5 5.23071 17.4679 5.16019 17.4038 5.09609C17.3397 5.03198 17.2692 4.99993 17.1922 4.99993H1.80768C1.73075 4.99993 1.66023 5.03198 1.59612 5.09609C1.53202 5.16019 1.49996 5.23071 1.49996 5.30764V16.6922C1.49996 16.7691 1.53202 16.8397 1.59612 16.9038C1.66023 16.9679 1.73075 16.9999 1.80768 16.9999V16.9999M7.49996 3.49996H11.5V1.80768C11.5 1.73075 11.4679 1.66023 11.4038 1.59612C11.3397 1.53202 11.2692 1.49996 11.1922 1.49996H7.80768C7.73075 1.49996 7.66023 1.53202 7.59612 1.59612C7.53202 1.66023 7.49996 1.73075 7.49996 1.80768V3.49996V3.49996M1.49996 16.9999C1.49996 16.9999 1.49996 16.9679 1.49996 16.9038C1.49996 16.8397 1.49996 16.7691 1.49996 16.6922V5.30764C1.49996 5.23071 1.49996 5.16019 1.49996 5.09609C1.49996 5.03198 1.49996 4.99993 1.49996 4.99993V4.99993C1.49996 4.99993 1.49996 5.03198 1.49996 5.09609C1.49996 5.16019 1.49996 5.23071 1.49996 5.30764V16.6922C1.49996 16.7691 1.49996 16.8397 1.49996 16.9038C1.49996 16.9679 1.49996 16.9999 1.49996 16.9999V16.9999V16.9999M8.74998 11.7499V14.7499H10.2499V11.7499H13.2499V10.2499H10.2499V7.24995H8.74998V10.2499H5.74998V11.7499H8.74998V11.7499" fill="var(--fill-0, #60233E)"/>
</g>
</svg>
