<svg width="76" height="72" viewBox="0 0 76 72" fill="none" xmlns="http://www.w3.org/2000/svg">
<g id="Container" opacity="0.05">
<path id="Icon" d="M8 64V64V64V64V64V64V64V64V8V8V8V8V8V8V8V8C8 8 8 9.48333 8 12.45C8 15.4167 8 19.2667 8 24V48C8 52.7333 8 56.5833 8 59.55C8 62.5167 8 64 8 64V64M8 72C5.8 72 3.91667 71.2167 2.35 69.65C0.783333 68.0833 0 66.2 0 64V8C0 5.8 0.783333 3.91667 2.35 2.35C3.91667 0.783333 5.8 0 8 0H64C66.2 0 68.0833 0.783333 69.65 2.35C71.2167 3.91667 72 5.8 72 8V18H64V8V8V8H8V8V8V64V64V64H64V64V64V54H72V64C72 66.2 71.2167 68.0833 69.65 69.65C68.0833 71.2167 66.2 72 64 72H8V72M40 56C37.8 56 35.9167 55.2167 34.35 53.65C32.7833 52.0833 32 50.2 32 48V24C32 21.8 32.7833 19.9167 34.35 18.35C35.9167 16.7833 37.8 16 40 16H68C70.2 16 72.0833 16.7833 73.65 18.35C75.2167 19.9167 76 21.8 76 24V48C76 50.2 75.2167 52.0833 73.65 53.65C72.0833 55.2167 70.2 56 68 56H40V56M68 48V48V48V24V24V24H40V24V24V48V48V48H68V48M52 42C53.6667 42 55.0833 41.4167 56.25 40.25C57.4167 39.0833 58 37.6667 58 36C58 34.3333 57.4167 32.9167 56.25 31.75C55.0833 30.5833 53.6667 30 52 30C50.3333 30 48.9167 30.5833 47.75 31.75C46.5833 32.9167 46 34.3333 46 36C46 37.6667 46.5833 39.0833 47.75 40.25C48.9167 41.4167 50.3333 42 52 42V42" fill="var(--fill-0, #1A1C19)"/>
</g>
</svg>
