<svg width="12.8333" height="14.8333" viewBox="0 0 12.8333 14.8333" fill="none" xmlns="http://www.w3.org/2000/svg">
<g id="Margin">
<path id="Icon" d="M5.83333 3.75V2H7V3.75H5.83333V3.75M5.83333 14.8333V13.0833H7V14.8333H5.83333V14.8333M11.0833 9V7.83333H12.8333V9H11.0833V9M0 9V7.83333H1.75V9H0V9M10.325 5.325L9.50833 4.50833L10.5292 3.45833L11.375 4.30417L10.325 5.325V5.325M2.30417 13.375L1.45833 12.5292L2.50833 11.5083L3.325 12.325L2.30417 13.375V13.375M10.5292 13.375L9.50833 12.325L10.325 11.5083L11.375 12.5292L10.5292 13.375V13.375M2.50833 5.325L1.45833 4.30417L2.30417 3.45833L3.325 4.50833L2.50833 5.325V5.325M6.41667 11.9167C5.44444 11.9167 4.61806 11.5764 3.9375 10.8958C3.25694 10.2153 2.91667 9.38889 2.91667 8.41667C2.91667 7.44444 3.25694 6.61806 3.9375 5.9375C4.61806 5.25694 5.44444 4.91667 6.41667 4.91667C7.38889 4.91667 8.21528 5.25694 8.89583 5.9375C9.57639 6.61806 9.91667 7.44444 9.91667 8.41667C9.91667 9.38889 9.57639 10.2153 8.89583 10.8958C8.21528 11.5764 7.38889 11.9167 6.41667 11.9167V11.9167M6.41667 10.75C7.06806 10.75 7.61979 10.524 8.07187 10.0719C8.52396 9.61979 8.75 9.06806 8.75 8.41667C8.75 7.76528 8.52396 7.21354 8.07187 6.76146C7.61979 6.30938 7.06806 6.08333 6.41667 6.08333C5.76528 6.08333 5.21354 6.30938 4.76146 6.76146C4.30938 7.21354 4.08333 7.76528 4.08333 8.41667C4.08333 9.06806 4.30938 9.61979 4.76146 10.0719C5.21354 10.524 5.76528 10.75 6.41667 10.75V10.75M6.41667 8.41667V8.41667V8.41667V8.41667V8.41667V8.41667V8.41667V8.41667V8.41667V8.41667" fill="var(--fill-0, #60233E)"/>
</g>
</svg>
