<svg width="79.9" height="80" viewBox="0 0 79.9 80" fill="none" xmlns="http://www.w3.org/2000/svg">
<g id="Container" opacity="0.05">
<path id="Icon" d="M77.6 49L49 77.6C48.2 78.4 47.3 79 46.3 79.4C45.3 79.8 44.3 80 43.3 80C42.3 80 41.3 79.8 40.3 79.4C39.3 79 38.4 78.4 37.6 77.6L2.3 42.3C1.56667 41.5667 1 40.7167 0.6 39.75C0.2 38.7833 0 37.7667 0 36.7V8C0 5.8 0.783333 3.91667 2.35 2.35C3.91667 0.783333 5.8 0 8 0H36.7C37.7667 0 38.8 0.216667 39.8 0.65C40.8 1.08333 41.6667 1.66667 42.4 2.4L77.6 37.7C78.4 38.5 78.9833 39.4 79.35 40.4C79.7167 41.4 79.9 42.4 79.9 43.4C79.9 44.4 79.7167 45.3833 79.35 46.35C78.9833 47.3167 78.4 48.2 77.6 49V49M43.3 72L71.9 43.4V43.4V43.4L36.6 8H8V8V8V36.6V36.6V36.6L43.3 72V72V72V72M18 24C19.6667 24 21.0833 23.4167 22.25 22.25C23.4167 21.0833 24 19.6667 24 18C24 16.3333 23.4167 14.9167 22.25 13.75C21.0833 12.5833 19.6667 12 18 12C16.3333 12 14.9167 12.5833 13.75 13.75C12.5833 14.9167 12 16.3333 12 18C12 19.6667 12.5833 21.0833 13.75 22.25C14.9167 23.4167 16.3333 24 18 24V24M40 40V40V40V40V40V40V40V40V40V40V40V40V40V40V40" fill="var(--fill-0, #1A1C19)"/>
</g>
</svg>
