<svg preserveAspectRatio="none" width="100%" height="100%" overflow="visible" style="display: block;" viewBox="0 0 32 36" fill="none" xmlns="http://www.w3.org/2000/svg">
<g id="Overlay">
<rect width="32" height="36" rx="8" fill="var(--fill-0, #6B5C46)" fill-opacity="0.1"/>
<path id="Icon" d="M10 28C9.45 28 8.97917 27.8042 8.5875 27.4125C8.19583 27.0208 8 26.55 8 26V14C8 13.45 8.19583 12.9792 8.5875 12.5875C8.97917 12.1958 9.45 12 10 12H12V12C12 10.9 12.3917 9.95833 13.175 9.175C13.9583 8.39167 14.9 8 16 8C17.1 8 18.0417 8.39167 18.825 9.175C19.6083 9.95833 20 10.9 20 12V12H22C22.55 12 23.0208 12.1958 23.4125 12.5875C23.8042 12.9792 24 13.45 24 14V26C24 26.55 23.8042 27.0208 23.4125 27.4125C23.0208 27.8042 22.55 28 22 28H10V28M10 26H22V26V26V14V14V14H20V16C20 16.2833 19.9042 16.5208 19.7125 16.7125C19.5208 16.9042 19.2833 17 19 17C18.7167 17 18.4792 16.9042 18.2875 16.7125C18.0958 16.5208 18 16.2833 18 16V14H14V16C14 16.2833 13.9042 16.5208 13.7125 16.7125C13.5208 16.9042 13.2833 17 13 17C12.7167 17 12.4792 16.9042 12.2875 16.7125C12.0958 16.5208 12 16.2833 12 16V14H10V14V14V26V26V26V26M14 12H18V12C18 11.45 17.8042 10.9792 17.4125 10.5875C17.0208 10.1958 16.55 10 16 10C15.45 10 14.9792 10.1958 14.5875 10.5875C14.1958 10.9792 14 11.45 14 12V12V12M10 26V26V26V26V14V14V14V14V14V14V26V26V26V26" fill="var(--fill-0, #6B5C46)"/>
</g>
</svg>
