<svg width="80" height="64" viewBox="0 0 80 64" fill="none" xmlns="http://www.w3.org/2000/svg">
<g id="Container" opacity="0.05">
<path id="Icon" d="M40 52C41.1333 52 42.0833 51.6167 42.85 50.85C43.6167 50.0833 44 49.1333 44 48C44 46.8667 43.6167 45.9167 42.85 45.15C42.0833 44.3833 41.1333 44 40 44C38.8667 44 37.9167 44.3833 37.15 45.15C36.3833 45.9167 36 46.8667 36 48C36 49.1333 36.3833 50.0833 37.15 50.85C37.9167 51.6167 38.8667 52 40 52V52M40 36C41.1333 36 42.0833 35.6167 42.85 34.85C43.6167 34.0833 44 33.1333 44 32C44 30.8667 43.6167 29.9167 42.85 29.15C42.0833 28.3833 41.1333 28 40 28C38.8667 28 37.9167 28.3833 37.15 29.15C36.3833 29.9167 36 30.8667 36 32C36 33.1333 36.3833 34.0833 37.15 34.85C37.9167 35.6167 38.8667 36 40 36V36M40 20C41.1333 20 42.0833 19.6167 42.85 18.85C43.6167 18.0833 44 17.1333 44 16C44 14.8667 43.6167 13.9167 42.85 13.15C42.0833 12.3833 41.1333 12 40 12C38.8667 12 37.9167 12.3833 37.15 13.15C36.3833 13.9167 36 14.8667 36 16C36 17.1333 36.3833 18.0833 37.15 18.85C37.9167 19.6167 38.8667 20 40 20V20M72 64H8C5.8 64 3.91667 63.2167 2.35 61.65C0.783333 60.0833 0 58.2 0 56V40C2.2 40 4.08333 39.2167 5.65 37.65C7.21667 36.0833 8 34.2 8 32C8 29.8 7.21667 27.9167 5.65 26.35C4.08333 24.7833 2.2 24 0 24V8C0 5.8 0.783333 3.91667 2.35 2.35C3.91667 0.783333 5.8 0 8 0H72C74.2 0 76.0833 0.783333 77.65 2.35C79.2167 3.91667 80 5.8 80 8V24C77.8 24 75.9167 24.7833 74.35 26.35C72.7833 27.9167 72 29.8 72 32C72 34.2 72.7833 36.0833 74.35 37.65C75.9167 39.2167 77.8 40 80 40V56C80 58.2 79.2167 60.0833 77.65 61.65C76.0833 63.2167 74.2 64 72 64V64M72 56V56V56V45.8C69.5333 44.3333 67.5833 42.3833 66.15 39.95C64.7167 37.5167 64 34.8667 64 32C64 29.1333 64.7167 26.4833 66.15 24.05C67.5833 21.6167 69.5333 19.6667 72 18.2V8V8V8H8V8V8V18.2C10.4667 19.6667 12.4167 21.6167 13.85 24.05C15.2833 26.4833 16 29.1333 16 32C16 34.8667 15.2833 37.5167 13.85 39.95C12.4167 42.3833 10.4667 44.3333 8 45.8V56V56V56H72V56M40 32V32V32V32V32V32V32V32V32V32V32V32V32V32V32V32V32V32V32V32V32V32V32V32" fill="var(--fill-0, #1A1C19)"/>
</g>
</svg>
