<svg width="20" height="20" viewBox="0 0 20 20" fill="none" xmlns="http://www.w3.org/2000/svg">
  <path d="M10 18C10 18 3 14 3 8.5C3 4.9 6.1 2 10 2C13.9 2 17 4.9 17 8.5C17 14 10 18 10 18Z" fill="#F4F4EF"/>
  <path d="M10 16.5C10 16.5 4.5 13.1 4.5 8.6C4.5 5.8 6.9 3.5 10 3.5C13.1 3.5 15.5 5.8 15.5 8.6C15.5 13.1 10 16.5 10 16.5Z" stroke="#2D5A27" stroke-width="1.4" stroke-linejoin="round"/>
  <path d="M10 13.8V7.2" stroke="#2D5A27" stroke-width="1.4" stroke-linecap="round"/>
  <path d="M10 10.7C8.3 10.7 7 9.5 6.7 7.8C8.4 7.8 9.7 8.9 10 10.7Z" fill="#2D5A27"/>
  <path d="M10 9.2C11.8 9.2 13.1 8.1 13.4 6.4C11.7 6.4 10.3 7.4 10 9.2Z" fill="#2D5A27"/>
</svg>
