<svg width="46" height="40" viewBox="0 0 46 40" fill="none" xmlns="http://www.w3.org/2000/svg">
<g id="Overlay">
<rect width="46" height="40" rx="16" fill="var(--fill-0, #2D5A27)" fill-opacity="0.1"/>
<path id="Icon" d="M17 28C16.1667 28 15.4583 27.7083 14.875 27.125C14.2917 26.5417 14 25.8333 14 25H12V14C12 13.45 12.1958 12.9792 12.5875 12.5875C12.9792 12.1958 13.45 12 14 12H28V16H31L34 20V25H32C32 25.8333 31.7083 26.5417 31.125 27.125C30.5417 27.7083 29.8333 28 29 28C28.1667 28 27.4583 27.7083 26.875 27.125C26.2917 26.5417 26 25.8333 26 25H20C20 25.8333 19.7083 26.5417 19.125 27.125C18.5417 27.7083 17.8333 28 17 28V28M17 26C17.2833 26 17.5208 25.9042 17.7125 25.7125C17.9042 25.5208 18 25.2833 18 25C18 24.7167 17.9042 24.4792 17.7125 24.2875C17.5208 24.0958 17.2833 24 17 24C16.7167 24 16.4792 24.0958 16.2875 24.2875C16.0958 24.4792 16 24.7167 16 25C16 25.2833 16.0958 25.5208 16.2875 25.7125C16.4792 25.9042 16.7167 26 17 26V26M14 23H14.8C15.0833 22.7 15.4083 22.4583 15.775 22.275C16.1417 22.0917 16.55 22 17 22C17.45 22 17.8583 22.0917 18.225 22.275C18.5917 22.4583 18.9167 22.7 19.2 23H26V14H14V14V14V23V23M29 26C29.2833 26 29.5208 25.9042 29.7125 25.7125C29.9042 25.5208 30 25.2833 30 25C30 24.7167 29.9042 24.4792 29.7125 24.2875C29.5208 24.0958 29.2833 24 29 24C28.7167 24 28.4792 24.0958 28.2875 24.2875C28.0958 24.4792 28 24.7167 28 25C28 25.2833 28.0958 25.5208 28.2875 25.7125C28.4792 25.9042 28.7167 26 29 26V26M28 21H32.25L30 18H28V21V21M20 18.5V18.5V18.5V18.5V18.5V18.5V18.5V18.5V18.5V18.5V18.5V18.5V18.5" fill="var(--fill-0, #2D5A27)"/>
</g>
</svg>
