<svg width="35" height="34" viewBox="0 0 35 34" fill="none" xmlns="http://www.w3.org/2000/svg">
<g id="Overlay">
<rect width="35" height="34" rx="8" fill="var(--fill-0, white)" fill-opacity="0.1"/>
<path id="Icon" d="M10 26C9.45 26 8.97917 25.8042 8.5875 25.4125C8.19583 25.0208 8 24.55 8 24V10C8 9.45 8.19583 8.97917 8.5875 8.5875C8.97917 8.19583 9.45 8 10 8H24C24.55 8 25.0208 8.19583 25.4125 8.5875C25.8042 8.97917 26 9.45 26 10V10H18C16.8167 10 15.8542 10.3708 15.1125 11.1125C14.3708 11.8542 14 12.8167 14 14V20C14 21.1833 14.3708 22.1458 15.1125 22.8875C15.8542 23.6292 16.8167 24 18 24H26V24C26 24.55 25.8042 25.0208 25.4125 25.4125C25.0208 25.8042 24.55 26 24 26H10V26M18 22C17.45 22 16.9792 21.8042 16.5875 21.4125C16.1958 21.0208 16 20.55 16 20V14C16 13.45 16.1958 12.9792 16.5875 12.5875C16.9792 12.1958 17.45 12 18 12H25C25.55 12 26.0208 12.1958 26.4125 12.5875C26.8042 12.9792 27 13.45 27 14V20C27 20.55 26.8042 21.0208 26.4125 21.4125C26.0208 21.8042 25.55 22 25 22H18V22M21 18.5C21.4333 18.5 21.7917 18.3583 22.075 18.075C22.3583 17.7917 22.5 17.4333 22.5 17C22.5 16.5667 22.3583 16.2083 22.075 15.925C21.7917 15.6417 21.4333 15.5 21 15.5C20.5667 15.5 20.2083 15.6417 19.925 15.925C19.6417 16.2083 19.5 16.5667 19.5 17C19.5 17.4333 19.6417 17.7917 19.925 18.075C20.2083 18.3583 20.5667 18.5 21 18.5V18.5" fill="var(--fill-0, #BCF0AE)"/>
</g>
</svg>
