<svg preserveAspectRatio="none" width="100%" height="100%" overflow="visible" style="display: block;" viewBox="0 0 20 20" fill="none" xmlns="http://www.w3.org/2000/svg">
<g id="SVG">
<path id="Vector" d="M14.2083 16.9C13.3917 17.6917 12.5 18.2417 11.575 18.2417C10.6833 18.2417 10.0917 17.7917 9.03333 17.7917C7.95833 17.7917 7.275 18.225 6.46667 18.225C5.575 18.225 4.64167 17.65 3.775 16.775C2.025 15.0167 1.14167 11.6667 1.14167 9.39167C1.14167 6.625 2.70833 5.16667 4.30833 5.16667C5.16667 5.16667 5.875 5.61667 6.60833 5.61667C7.30833 5.61667 7.925 5.15 8.96667 5.15C10.4833 5.15 11.725 6.26667 12.125 7.75C9.975 8.56667 10.325 11.5333 12.4833 12.425C12.0833 13.6583 11.4167 14.8083 10.7083 15.2333L14.2083 16.9M11.2417 3.68333C11.2417 4.6 10.4917 5.44167 9.64167 5.44167C9.55 5.44167 9.46667 5.43333 9.375 5.425C9.40833 4.49167 10.1667 3.625 11.05 3.625C11.1167 3.625 11.1833 3.625 11.2417 3.68333V3.68333" fill="var(--fill-0, #1A1C19)"/>
</g>
</svg>
