<svg preserveAspectRatio="none" width="100%" height="100%" overflow="visible" style="display: block;" viewBox="0 0 15 12" fill="none" xmlns="http://www.w3.org/2000/svg">
<g id="Container">
<path id="Icon" d="M3 12C2.175 12 1.46875 11.7062 0.88125 11.1187C0.29375 10.5312 0 9.825 0 9V3C0 2.175 0.29375 1.46875 0.88125 0.88125C1.46875 0.29375 2.175 0 3 0H12C12.825 0 13.5312 0.29375 14.1187 0.88125C14.7062 1.46875 15 2.175 15 3V9C15 9.825 14.7062 10.5312 14.1187 11.1187C13.5312 11.7062 12.825 12 12 12H3V12M3 3H12C12.275 3 12.5375 3.03125 12.7875 3.09375C13.0375 3.15625 13.275 3.25625 13.5 3.39375V3C13.5 2.5875 13.3531 2.23437 13.0594 1.94062C12.7656 1.64687 12.4125 1.5 12 1.5H3C2.5875 1.5 2.23437 1.64687 1.94062 1.94062C1.64687 2.23437 1.5 2.5875 1.5 3V3.39375C1.725 3.25625 1.9625 3.15625 2.2125 3.09375C2.4625 3.03125 2.725 3 3 3V3M1.6125 5.4375L9.95625 7.4625C10.0688 7.4875 10.1812 7.4875 10.2937 7.4625C10.4062 7.4375 10.5125 7.3875 10.6125 7.3125L13.2188 5.1375C13.0812 4.95 12.9063 4.79687 12.6938 4.67812C12.4813 4.55937 12.25 4.5 12 4.5H3C2.675 4.5 2.39062 4.58438 2.14687 4.75313C1.90312 4.92188 1.725 5.15 1.6125 5.4375V5.4375" fill="var(--fill-0, #154212)"/>
</g>
</svg>
