<svg preserveAspectRatio="none" width="100%" height="100%" overflow="visible" style="display: block;" viewBox="0 0 34 36" fill="none" xmlns="http://www.w3.org/2000/svg">
<g id="Overlay">
<rect width="34" height="36" rx="8" fill="var(--fill-0, #3B6934)" fill-opacity="0.1"/>
<path id="Icon" d="M11 28C10.1667 28 9.45833 27.7083 8.875 27.125C8.29167 26.5417 8 25.8333 8 25V22H11V8L12.5 9.5L14 8L15.5 9.5L17 8L18.5 9.5L20 8L21.5 9.5L23 8L24.5 9.5L26 8V25C26 25.8333 25.7083 26.5417 25.125 27.125C24.5417 27.7083 23.8333 28 23 28H11V28M23 26C23.2833 26 23.5208 25.9042 23.7125 25.7125C23.9042 25.5208 24 25.2833 24 25V11H13V22H22V25C22 25.2833 22.0958 25.5208 22.2875 25.7125C22.4792 25.9042 22.7167 26 23 26V26M14 15V13H20V15H14V15M14 18V16H20V18H14V18M22 15C21.7167 15 21.4792 14.9042 21.2875 14.7125C21.0958 14.5208 21 14.2833 21 14C21 13.7167 21.0958 13.4792 21.2875 13.2875C21.4792 13.0958 21.7167 13 22 13C22.2833 13 22.5208 13.0958 22.7125 13.2875C22.9042 13.4792 23 13.7167 23 14C23 14.2833 22.9042 14.5208 22.7125 14.7125C22.5208 14.9042 22.2833 15 22 15V15M22 18C21.7167 18 21.4792 17.9042 21.2875 17.7125C21.0958 17.5208 21 17.2833 21 17C21 16.7167 21.0958 16.4792 21.2875 16.2875C21.4792 16.0958 21.7167 16 22 16C22.2833 16 22.5208 16.0958 22.7125 16.2875C22.9042 16.4792 23 16.7167 23 17C23 17.2833 22.9042 17.5208 22.7125 17.7125C22.5208 17.9042 22.2833 18 22 18V18M11 26H20V24H10V25C10 25.2833 10.0958 25.5208 10.2875 25.7125C10.4792 25.9042 10.7167 26 11 26V26M10 26C10 26 10 25.9042 10 25.7125C10 25.5208 10 25.2833 10 25V24V24V26V26V26" fill="var(--fill-0, #3B6934)"/>
</g>
</svg>
