<svg width="17.5384" height="19.846" viewBox="0 0 17.5384 19.846" fill="none" xmlns="http://www.w3.org/2000/svg">
<g id="Container">
<path id="Icon" d="M8.77077 19.846C7.55561 19.846 6.41631 19.6153 5.35285 19.1537C4.2894 18.6922 3.36192 18.0653 2.57043 17.273C1.77894 16.4807 1.15266 15.5538 0.691595 14.4922C0.230532 13.4307 0 12.2922 0 11.0769C0 9.86148 0.230768 8.72302 0.692303 7.66149C1.15384 6.59996 1.78076 5.67304 2.57306 4.88074C3.36536 4.08844 4.29228 3.46152 5.35381 2.99998C6.41535 2.53845 7.5538 2.30768 8.76918 2.30768V0L12.4615 3.69229L8.76918 7.38537V5.07719C7.10765 5.07719 5.69227 5.66193 4.52305 6.83141C3.35383 8.00088 2.76921 9.41656 2.76921 11.0785C2.76921 12.094 3.00255 13.0358 3.46921 13.9038C3.93587 14.7717 4.56536 15.4749 5.35766 16.0134C5.59868 15.5852 5.96228 15.2213 6.44844 14.9219C6.93461 14.6225 7.49409 14.4344 8.12687 14.3576C8.07983 14.0332 8.01711 13.7089 7.93871 13.3845C7.86031 13.0602 7.76918 12.7608 7.66534 12.4865C7.49611 12.6243 7.31149 12.7315 7.1115 12.8081C6.9115 12.8847 6.69611 12.923 6.46535 12.923C5.95766 12.923 5.5224 12.742 5.15958 12.38C4.79677 12.0181 4.61536 11.5829 4.61536 11.0746V10.1504C4.61536 9.88856 4.57433 9.64385 4.49228 9.41629C4.41023 9.18873 4.29741 8.97302 4.15382 8.76918C4.92269 8.75251 5.60698 8.82164 6.2067 8.97657C6.72953 9.11484 7.20623 9.34144 7.63679 9.65638C8.06736 9.97132 8.29098 10.4462 8.30764 11.081C8.30764 11.2203 8.29514 11.3481 8.27014 11.4642C8.24514 11.5803 8.20251 11.6986 8.14226 11.8192C7.94289 11.6645 7.74352 11.5253 7.54415 11.4016C7.34478 11.2779 7.13774 11.1696 6.92303 11.0769C7.18714 11.2807 7.48797 11.5896 7.82553 12.0034C8.1631 12.4173 8.47765 12.9078 8.76918 13.4749C9.08328 12.7224 9.47014 11.9807 9.92975 11.2499C10.3894 10.5192 10.9256 9.84609 11.5384 9.23071C11.1871 9.47815 10.8493 9.73904 10.5249 10.0134C10.2006 10.2878 9.88455 10.582 9.57686 10.8961C9.47302 10.7256 9.38937 10.5363 9.3259 10.3281C9.26244 10.12 9.23071 9.90807 9.23071 9.69225C9.23071 9.04994 9.45475 8.50476 9.90282 8.05668C10.3509 7.60861 10.8971 7.38457 11.5414 7.38457H12.4618C12.8146 7.38457 13.1061 7.33842 13.3362 7.24611C13.5663 7.1538 13.7581 7.04611 13.9115 6.92303C14.0823 6.78457 14.2144 6.63073 14.3076 6.4615C14.3679 7.49483 14.3159 8.4179 14.1518 9.23071C14.0082 9.92302 13.7444 10.5571 13.3603 11.133C12.9762 11.7089 12.3694 11.9969 11.5398 11.9969C11.3093 11.9969 11.0904 11.9662 10.883 11.9047C10.6756 11.8433 10.4874 11.7588 10.3184 11.6513C10.2108 11.9431 10.0879 12.3309 9.94966 12.8147C9.81138 13.2984 9.70379 13.8179 9.62686 14.373C10.2097 14.4808 10.7236 14.681 11.1684 14.9737C11.6132 15.2663 11.9506 15.6129 12.1807 16.0134C12.9665 15.4751 13.5943 14.7754 14.0643 13.9142C14.5342 13.053 14.7691 12.1072 14.7691 11.0769H17.5384C17.5384 12.2922 17.3076 13.4307 16.8462 14.4922C16.3847 15.5538 15.7579 16.4807 14.9658 17.273C14.1736 18.0653 13.2469 18.6922 12.1855 19.1537C11.1242 19.6153 9.98593 19.846 8.77077 19.846V19.846" fill="var(--fill-0, #70604A)"/>
</g>
</svg>
